<svg id="Layer_1" data-name="Layer 1" xmlns="http://www.w3.org/2000/svg" xmlns:xlink="http://www.w3.org/1999/xlink" viewBox="0 0 631.97 437.34"><defs><linearGradient id="linear-gradient" x1="0.8" y1="1501.89" x2="1.8" y2="1501.89" gradientTransform="matrix(612, 0, 0, -612, -72.07, 919906.3)" gradientUnits="userSpaceOnUse"><stop offset="0" stop-color="#ed2224"/><stop offset="0.18" stop-color="#f8981d"/><stop offset="0.38" stop-color="#f7ec0f"/><stop offset="0.57" stop-color="#68bd45"/><stop offset="0.77" stop-color="#3a53a4"/><stop offset="1" stop-color="#c062a6"/></linearGradient></defs><path d="M666.6,531.26q28.13,0,40.78,21.62T720,604.74q0,53.44-27.43,115T622,799.86q-22.16,9.5-44,9.49-13,0-30.93-4.92a3.16,3.16,0,0,1-1.41-.35,3.21,3.21,0,0,0-1.41-.36c-1.4,0-2.87.94-4.39,2.82a14.63,14.63,0,0,0-3,5.62c-.47,1.88-1,4.4-1.76,7.56a49.5,49.5,0,0,0-1.05,5.45q-10.2,36.57-34.28,90t-44.12,53.44q-23.91,0-21.8-41.84,2.11-26,19.16-67.85t33.23-73.48q16.15-31.63,16.17-35.86a15.5,15.5,0,0,0-.35-2.46,15.86,15.86,0,0,1-.36-3.16q0-4.22,4.22-6a7.6,7.6,0,0,0,2.82-1.4q1.39-.71,6-9.5,4.23-8.07,11.6-23.55,4.92-10.2,4.93-58.36,0-71.37-20-71.37-6.33,0-10.73,9.32t-9.66,9.32q-10.2,0-9.85-8.44,0-12.3,9-19.87a32,32,0,0,1,21.27-7.55q17.93,0,29.35,12.3t14.07,26.72q2.63,14.42,4,27.25t2.11,13.53L576.6,610q15.1-26,40.25-52.38T666.6,531.26ZM463.39,915.17q8.79,0,31.12-63.63t25.13-81.21c.47-2.34.24-4-.7-4.93-.47-.46-.94,0-1.4,1.41a2.84,2.84,0,0,0-.71,2.11q-2.1,4.92-20.92,46.05t-29.18,70.67Q456.37,915.18,463.39,915.17ZM578,786.15q35.16,0,62.58-35.16a220.08,220.08,0,0,0,39-76.64q11.6-41.48,11.6-75.94a80.37,80.37,0,0,0-5.8-30.23q-5.8-14.41-19.52-14.42-11.6,0-27.77,17.58t-32.34,44.3q-16.18,26.72-26.72,45.7t-17.58,34.1q-4.22,7-4.92,11.6L552,741.5l-4.22,25.31a16.8,16.8,0,0,1-1.06,3.69,15.16,15.16,0,0,0-1.05,4.4q0,4.92,12.66,8.08T578,786.15Zm457.23-238a10.58,10.58,0,0,1,5.63-1.76q29.54,0,23.9,43.24a358.4,358.4,0,0,1-15.11,53.44q-9.5,26.72-23.91,61.17t-37.09,83.5q-22.68,49-46.76,83.85t-42.71,40.78a42.27,42.27,0,0,1-10.2,1.4q-21.45,0-28.65-36.73t-4-69.09q3.16-32.34-1.76-40.43l-2.11,2.11Q794.06,850.83,702,948.22c-1.88,1.87-5.62,3.69-11.25,5.45s-10.67,1.75-15.12,0-6-5.45-4.57-11.08l8.44-39.72q26-89.29,74.88-187.74,48.87-99.48,95.28-149.06l-52,11.25q-8.79,2.1-33.75,11.6-11.61,4.22-16.18-3.16t3.17-16.18q5.63-7,50.27-14.23T873.87,545c.93-.46,2.86-.7,5.8-.7a8.05,8.05,0,0,1,6.85,3.34,6.76,6.76,0,0,1,1.06,6.86c-.48,2.34-2.52,5.57-6.16,9.66s-9.49,11.43-17.57,22S847.15,608.61,838,622q-39.74,59.76-80.34,146.95T708.28,907.08c0,2.82.93,3.4,2.81,1.76q13-13.71,26.72-29.53t30.59-37.44q16.88-21.61,25.13-33.22T822,769.27q20.22-27.76,23-32c.93-1.41,2.28-3.57,4-6.5a50.92,50.92,0,0,1,5.1-7.21,34.24,34.24,0,0,1,5.27-4.92,19,19,0,0,1,8.62-2.11c2.92,0,4.86.23,5.8.7q6.32,2.82,8.08,15.82l1.41,70q0,2.12.35,13.19t.7,22.32q.35,11.25,1.41,23A110.66,110.66,0,0,0,889,880.89c1.41,5.05,3.4,7.56,6,7.56,1.87,0,3.87-1.05,6-3.16a59.19,59.19,0,0,0,6.85-8.62,72.14,72.14,0,0,1,4.4-6.15q30.22-41.84,72.59-135T1035.23,597q2.12-19.34,1.41-23.21-.71-4.21-6.86-8.26t-5.45-8.26a11.17,11.17,0,0,1,4.05-6.33q3.33-2.81,6.15-2.81Z" transform="translate(-433.69 -531.26)" style="fill:url(#linear-gradient)"/></svg>